<svg version="1" xmlns="http://www.w3.org/2000/svg" width="682.667" height="682.667" viewBox="0 0 512.000000 512.000000"><path d="M7.2 67.2C8 68.5 12.6 76 17.5 84c4.8 8 9.8 16.1 11 18 1.2 1.9 6 9.7 10.6 17.3 13.9 22.9 27.7 45.5 40.4 66.1 6.6 10.8 14 23 16.5 27.1 2.5 4.2 23.4 38.4 46.5 76.1 23.1 37.7 42.7 69.8 43.5 71.2.9 1.5 3.1 5.1 4.9 8l3.3 5.3 3.2-2.4c1.7-1.3 13.9-10.1 27.1-19.7 13.2-9.5 24.2-17.5 24.4-17.6.2-.2-2.2-4.4-5.3-9.4-3.1-4.9-5.6-9.2-5.6-9.5 0-.2-1.2-2.3-2.7-4.7-1.6-2.4-3.3-5.2-4-6.3-2.9-4.9-29.8-49.4-31.8-52.5-1.2-1.9-9.6-15.7-18.5-30.5-9-14.9-20-33.1-24.5-40.5-25.9-42.6-57-93.9-58.6-96.7-2.3-4.1-6.5-10.9-9.2-15l-2.2-3.2-40.4-.1H5.7l1.5 2.2zM107 65.5c0 .3 4.4 7.8 9.8 16.8 5.5 8.9 14.5 23.8 20.2 33.2 5.7 9.3 10.7 17.4 11.2 18 .6.6 24.2 1 66.1 1h65.2l.2 19c0 10.5.2 19.5.2 20.1.1 1.2 169.1 1.7 169.1.4 0-.3-1.8-3.1-4-6.1-2.2-3-4.7-6.3-5.4-7.4-.8-1.1-10.1-13.9-20.6-28.5l-19.1-26.5h-59.4c-32.6 0-59.7-.3-60.1-.7-.4-.5-.7-9.6-.7-20.3V65h-86.3c-47.5 0-86.4.2-86.4.5zM378 192.3c0 .7 19.3 28.7 28 40.5 1.8 2.4 3 4.5 2.8 4.7-1.2 1.1-93 67.8-101.8 74-3.1 2.2-7 5.1-8.6 6.3-2.6 2.2-50 36.7-55.1 40.2-2 1.4-34.3 25-38.6 28.2-1.8 1.3-.8 3.1 14.4 27.8 21.4 34.9 19.6 32.6 22.3 30.2 1.9-1.7 21.1-15.8 26.2-19.2 1.2-.8 8.2-5.9 15.6-11.2 7.3-5.4 20.5-15 29.3-21.3 8.8-6.4 17.1-12.4 18.5-13.5 1.4-1 9.7-7 18.5-13.4 8.8-6.3 16.5-11.9 17-12.3.6-.5 12.5-9.1 26.5-19.2 14-10.2 28.9-20.9 33-24 9-6.6 10.9-7.9 32-23.1 9.1-6.6 23.1-16.7 31.1-22.6 8-5.8 15.1-10.9 15.8-11.4.9-.5-3.4-7.2-15-23.1-9-12.3-19.1-26-22.5-30.4l-6.1-8h-41.7c-22.9-.1-41.6.3-41.6.8z"/></svg>